<?xml version="1.0" encoding="UTF-8"?>
<svg id="Layer_1" data-name="Layer 1" xmlns="http://www.w3.org/2000/svg" viewBox="0 0 918 287">
  <defs>
    <style>
      .cls-1 {
        fill: #0047a0;
      }

      .cls-2 {
        isolation: isolate;
      }

      .cls-3 {
        fill: #fff;
        stroke: #000;
        stroke-miterlimit: 10;
      }

      .cls-4 {
        fill: #cd2e3a;
      }
    </style>
  </defs>
  <rect class="cls-3" x=".5" y=".5" width="917" height="286"/>
  <g class="cls-2">
    <path d="M152.65,222.73l-58.42-71.53v71.53h-32.2V62.19h32.2v71.99l58.42-71.99h38.87l-66.24,79.58,68.08,80.96h-40.71Z"/>
    <path d="M461.53,222.73l-35.42-62.56h-15.18v62.56h-32.2V62.19h60.26c12.42,0,23,2.18,31.74,6.56,8.74,4.37,15.3,10.27,19.67,17.71s6.55,15.76,6.55,24.95c0,10.58-3.07,20.12-9.2,28.64-6.14,8.51-15.26,14.38-27.37,17.6l38.41,65.09h-37.26,0ZM410.93,136.03h26.91c8.74,0,15.26-2.11,19.55-6.32s6.44-10.08,6.44-17.6-2.15-13.07-6.44-17.14c-4.29-4.06-10.81-6.1-19.55-6.1h-26.91v47.15h0Z"/>
    <path d="M701.19,62.2v160.54h-32.2v-104.42l-43.01,104.42h-24.38l-43.24-104.42v104.42h-32.2V62.2h36.57l51.06,119.37,51.06-119.37s36.34,0,36.34,0Z"/>
    <path d="M756.39,216.64c-9.81-5.44-17.52-13.15-23.11-23.12-5.6-9.97-8.4-21.47-8.4-34.5s2.88-24.53,8.62-34.5c5.75-9.97,13.6-17.67,23.57-23.12,9.97-5.44,21.08-8.17,33.35-8.17s23.38,2.72,33.35,8.17c9.97,5.44,17.83,13.15,23.58,23.12s8.62,21.47,8.62,34.5-2.95,24.53-8.85,34.5c-5.91,9.97-13.88,17.67-23.92,23.12-10.04,5.44-21.27,8.17-33.69,8.17s-23.31-2.72-33.12-8.16h0ZM805.95,192.5c5.14-2.84,9.24-7.09,12.31-12.76s4.6-12.57,4.6-20.7c0-12.11-3.18-21.43-9.54-27.95s-14.15-9.77-23.34-9.77-16.91,3.26-23.11,9.77c-6.21,6.52-9.31,15.83-9.31,27.95s3.03,21.43,9.09,27.95c6.05,6.52,13.68,9.77,22.89,9.77,5.83,0,11.31-1.42,16.44-4.26h-.03Z"/>
  </g>
  <g>
    <path class="cls-4" d="M304.39,164.85c-17.69,26.53-53.54,33.71-80.08,16.02-26.53-17.69-33.71-53.54-16.02-80.08,23.6-35.38,71.4-44.94,106.78-21.35s44.94,71.39,21.35,106.77"/>
    <path class="cls-1" d="M272.36,143.5c11.79-17.69,35.69-22.47,53.38-10.68s22.47,35.69,10.68,53.38c-23.59,35.38-71.39,44.94-106.77,21.35-35.38-23.59-44.94-71.39-21.35-106.77-11.79,17.69-7.01,41.59,10.68,53.38,17.69,11.79,41.59,7.01,53.38-10.68"/>
  </g>
</svg>