<?xml version="1.0" encoding="UTF-8"?>
<svg id="Layer_1" xmlns="http://www.w3.org/2000/svg" version="1.1" viewBox="0 0 2000 600">
  <!-- Generator: Adobe Illustrator 29.8.2, SVG Export Plug-In . SVG Version: 2.1.1 Build 3)  -->
  <defs>
    <style>
      .st0 {
        fill: #2b62a8;
      }

      .st1 {
        isolation: isolate;
      }

      .st2 {
        fill: #fff;
        stroke: #000;
        stroke-miterlimit: 10;
      }

      .st3 {
        fill: #e02925;
      }
    </style>
  </defs>
  <rect class="st2" x="-22.62" y="-73.46" width="2122.73" height="741.3"/>
  <g>
    <path class="st3" d="M897.41,306.91h-154c3.01-103.74,150.83-103.54,154,0Z"/>
    <path class="st0" d="M897.41,306.91c-4.23,102.88-149.67,102.62-154,0h154Z"/>
  </g>
  <g class="st1">
    <path d="M697.67,389.72l-58.42-71.53v71.53h-32.2v-160.54h32.2v71.99l58.42-71.99h38.87l-66.24,79.58,68.08,80.96h-40.71Z"/>
    <path d="M1006.55,389.72l-35.42-62.56h-15.18v62.56h-32.2v-160.54h60.26c12.42,0,23,2.18,31.74,6.56,8.74,4.37,15.3,10.27,19.67,17.71s6.55,15.76,6.55,24.95c0,10.58-3.07,20.12-9.2,28.64-6.14,8.51-15.26,14.38-27.37,17.6l38.41,65.09h-37.26ZM955.95,303.01h26.91c8.74,0,15.26-2.11,19.55-6.32,4.29-4.21,6.44-10.08,6.44-17.6s-2.15-13.07-6.44-17.14c-4.29-4.06-10.81-6.1-19.55-6.1h-26.91v47.15h0Z"/>
    <path d="M1246.21,229.18v160.54h-32.2v-104.42l-43.01,104.42h-24.38l-43.24-104.42v104.42h-32.2v-160.54h36.57l51.06,119.37,51.06-119.37h36.34,0Z"/>
    <path d="M1301.41,383.62c-9.81-5.44-17.52-13.15-23.11-23.12-5.6-9.97-8.4-21.47-8.4-34.5s2.88-24.53,8.62-34.5c5.75-9.97,13.6-17.67,23.57-23.12,9.97-5.44,21.08-8.17,33.35-8.17s23.38,2.72,33.35,8.17c9.97,5.44,17.83,13.15,23.58,23.12s8.62,21.47,8.62,34.5-2.95,24.53-8.85,34.5c-5.91,9.97-13.88,17.67-23.92,23.12-10.04,5.44-21.27,8.17-33.69,8.17s-23.31-2.72-33.12-8.16h0ZM1350.97,359.48c5.14-2.84,9.24-7.09,12.31-12.76,3.07-5.67,4.6-12.57,4.6-20.7,0-12.11-3.18-21.43-9.54-27.95-6.36-6.52-14.15-9.77-23.34-9.77s-16.91,3.26-23.11,9.77c-6.21,6.52-9.31,15.83-9.31,27.95s3.03,21.43,9.09,27.95c6.05,6.52,13.68,9.77,22.89,9.77,5.83,0,11.31-1.42,16.44-4.26h-.03,0Z"/>
  </g>
</svg>