<?xml version="1.0" encoding="UTF-8"?>
<svg id="Layer_1" data-name="Layer 1" xmlns="http://www.w3.org/2000/svg" viewBox="0 0 861.56 332">
  <defs>
    <style>
      .cls-1 {
        fill: #2b62a8;
      }

      .cls-2 {
        isolation: isolate;
      }

      .cls-3 {
        fill: #fff;
        stroke: #000;
        stroke-miterlimit: 10;
      }

      .cls-4 {
        fill: #e02925;
      }
    </style>
  </defs>
  <rect class="cls-3" x="-9" y="-18.22" width="883" height="367"/>
  <g>
    <path class="cls-4" d="M328.19,172.91h-154c3.01-103.74,150.83-103.54,154,0Z"/>
    <path class="cls-1" d="M328.19,172.91c-4.23,102.88-149.67,102.62-154,0h154Z"/>
  </g>
  <g class="cls-2">
    <path d="M128.45,255.72l-58.42-71.53v71.53h-32.2V95.18h32.2v71.99l58.42-71.99h38.87l-66.24,79.58,68.08,80.96h-40.71Z"/>
    <path d="M437.333,255.72l-35.42-62.56h-15.18v62.56h-32.2V95.18h60.26c12.42,0,23,2.185,31.741,6.555,8.739,4.37,15.295,10.274,19.665,17.71,4.369,7.439,6.555,15.756,6.555,24.955,0,10.58-3.069,20.125-9.2,28.636-6.135,8.51-15.259,14.375-27.37,17.595l38.41,65.09h-37.261ZM386.732,169.01h26.91c8.74,0,15.255-2.106,19.55-6.325,4.291-4.215,6.44-10.08,6.44-17.595,0-7.36-2.149-13.07-6.44-17.135-4.294-4.062-10.81-6.096-19.55-6.096h-26.91v47.15h0Z"/>
    <path d="M676.991,95.18v160.54h-32.2v-104.42l-43.01,104.42h-24.38l-43.24-104.42v104.42h-32.2V95.18h36.57l51.06,119.37,51.06-119.37h36.341,0Z"/>
    <path d="M732.188,249.625c-9.814-5.441-17.52-13.146-23.115-23.115-5.599-9.966-8.395-21.466-8.395-34.5s2.875-24.531,8.625-34.5c5.75-9.966,13.605-17.671,23.574-23.115,9.966-5.44,21.081-8.165,33.351-8.165s23.381,2.725,33.35,8.165c9.966,5.444,17.825,13.149,23.575,23.115,5.75,9.969,8.625,21.469,8.625,34.5s-2.954,24.534-8.854,34.5c-5.905,9.969-13.88,17.674-23.921,23.115-10.044,5.444-21.274,8.165-33.694,8.165-12.27,0-23.31-2.721-33.12-8.165h0ZM781.752,225.475c5.136-2.835,9.236-7.091,12.306-12.765,3.065-5.671,4.6-12.571,4.6-20.7,0-12.111-3.184-21.426-9.545-27.945-6.364-6.516-14.145-9.774-23.345-9.774s-16.905,3.259-23.115,9.774c-6.21,6.52-9.314,15.834-9.314,27.945s3.025,21.43,9.085,27.945c6.055,6.519,13.685,9.774,22.885,9.774,5.825,0,11.306-1.416,16.444-4.255h-.001Z"/>
  </g>
</svg>